<svg id="visual" viewBox="0 0 900 600" width="900" height="600" xmlns="http://www.w3.org/2000/svg" xmlns:xlink="http://www.w3.org/1999/xlink" version="1.1"><g stroke-width="1" stroke-linejoin="bevel"><path d="M466 331L391 315L419 384Z" fill="#19435d" stroke="#19435d"></path><path d="M419 384L503 439L466 331Z" fill="#112e42" stroke="#112e42"></path><path d="M391 315L283 378L419 384Z" fill="#112e42" stroke="#112e42"></path><path d="M419 384L417 476L503 439Z" fill="#297ea6" stroke="#297ea6"></path><path d="M282 463L417 476L419 384Z" fill="#246688" stroke="#246688"></path><path d="M296 324L283 378L391 315Z" fill="#1d4e6b" stroke="#1d4e6b"></path><path d="M501 183L387 173L391 315Z" fill="#246688" stroke="#246688"></path><path d="M391 315L387 173L296 324Z" fill="#19435d" stroke="#19435d"></path><path d="M570 232L501 183L466 331Z" fill="#297ea6" stroke="#297ea6"></path><path d="M466 331L501 183L391 315Z" fill="#297ea6" stroke="#297ea6"></path><path d="M503 439L604 326L466 331Z" fill="#297ea6" stroke="#297ea6"></path><path d="M604 326L570 232L466 331Z" fill="#0c2435" stroke="#0c2435"></path><path d="M417 600L461 524L417 476Z" fill="#205a7a" stroke="#205a7a"></path><path d="M417 476L461 524L503 439Z" fill="#00101c" stroke="#00101c"></path><path d="M503 439L633 395L604 326Z" fill="#246688" stroke="#246688"></path><path d="M283 378L282 463L419 384Z" fill="#205a7a" stroke="#205a7a"></path><path d="M632 462L633 395L503 439Z" fill="#112e42" stroke="#112e42"></path><path d="M604 326L672 325L570 232Z" fill="#297ea6" stroke="#297ea6"></path><path d="M387 173L267 176L296 324Z" fill="#246688" stroke="#246688"></path><path d="M296 324L180 281L283 378Z" fill="#19435d" stroke="#19435d"></path><path d="M283 378L182 420L282 463Z" fill="#081a28" stroke="#081a28"></path><path d="M267 176L222 221L296 324Z" fill="#246688" stroke="#246688"></path><path d="M598 600L632 462L503 439Z" fill="#297ea6" stroke="#297ea6"></path><path d="M674 413L672 325L633 395Z" fill="#246688" stroke="#246688"></path><path d="M633 395L672 325L604 326Z" fill="#081a28" stroke="#081a28"></path><path d="M222 221L180 281L296 324Z" fill="#112e42" stroke="#112e42"></path><path d="M180 281L182 420L283 378Z" fill="#19435d" stroke="#19435d"></path><path d="M280 600L417 600L417 476Z" fill="#0c2435" stroke="#0c2435"></path><path d="M461 524L598 600L503 439Z" fill="#00101c" stroke="#00101c"></path><path d="M280 600L417 476L282 463Z" fill="#00101c" stroke="#00101c"></path><path d="M632 462L674 413L633 395Z" fill="#297ea6" stroke="#297ea6"></path><path d="M417 600L477 600L461 524Z" fill="#112e42" stroke="#112e42"></path><path d="M570 232L529 91L501 183Z" fill="#19435d" stroke="#19435d"></path><path d="M501 183L529 91L387 173Z" fill="#1d4e6b" stroke="#1d4e6b"></path><path d="M387 173L319 73L267 176Z" fill="#246688" stroke="#246688"></path><path d="M597 75L529 91L570 232Z" fill="#246688" stroke="#246688"></path><path d="M529 91L381 62L387 173Z" fill="#00101c" stroke="#00101c"></path><path d="M381 62L319 73L387 173Z" fill="#19435d" stroke="#19435d"></path><path d="M267 176L128 136L222 221Z" fill="#00101c" stroke="#00101c"></path><path d="M95 189L128 307L180 281Z" fill="#15384f" stroke="#15384f"></path><path d="M198 600L280 600L282 463Z" fill="#1d4e6b" stroke="#1d4e6b"></path><path d="M98 376L160 479L182 420Z" fill="#112e42" stroke="#112e42"></path><path d="M182 420L160 479L282 463Z" fill="#0c2435" stroke="#0c2435"></path><path d="M95 189L180 281L222 221Z" fill="#205a7a" stroke="#205a7a"></path><path d="M180 281L128 307L182 420Z" fill="#081a28" stroke="#081a28"></path><path d="M477 600L598 600L461 524Z" fill="#1d4e6b" stroke="#1d4e6b"></path><path d="M632 462L724 474L674 413Z" fill="#00101c" stroke="#00101c"></path><path d="M780 332L705 196L672 325Z" fill="#277297" stroke="#277297"></path><path d="M672 325L705 196L570 232Z" fill="#15384f" stroke="#15384f"></path><path d="M705 196L597 75L570 232Z" fill="#246688" stroke="#246688"></path><path d="M529 91L407 0L381 62Z" fill="#00101c" stroke="#00101c"></path><path d="M712 600L724 474L632 462Z" fill="#1d4e6b" stroke="#1d4e6b"></path><path d="M674 413L780 332L672 325Z" fill="#19435d" stroke="#19435d"></path><path d="M128 307L98 376L182 420Z" fill="#277297" stroke="#277297"></path><path d="M98 376L131 497L160 479Z" fill="#297ea6" stroke="#297ea6"></path><path d="M160 479L198 600L282 463Z" fill="#1d4e6b" stroke="#1d4e6b"></path><path d="M525 0L407 0L529 91Z" fill="#246688" stroke="#246688"></path><path d="M381 62L334 0L319 73Z" fill="#246688" stroke="#246688"></path><path d="M131 497L198 600L160 479Z" fill="#15384f" stroke="#15384f"></path><path d="M407 0L334 0L381 62Z" fill="#277297" stroke="#277297"></path><path d="M160 75L128 136L267 176Z" fill="#1d4e6b" stroke="#1d4e6b"></path><path d="M798 431L780 332L674 413Z" fill="#00101c" stroke="#00101c"></path><path d="M597 75L525 0L529 91Z" fill="#00101c" stroke="#00101c"></path><path d="M160 75L267 176L319 73Z" fill="#297ea6" stroke="#297ea6"></path><path d="M128 307L0 321L98 376Z" fill="#19435d" stroke="#19435d"></path><path d="M128 136L95 189L222 221Z" fill="#1d4e6b" stroke="#1d4e6b"></path><path d="M184 0L160 75L319 73Z" fill="#19435d" stroke="#19435d"></path><path d="M0 84L0 174L95 189Z" fill="#1d4e6b" stroke="#1d4e6b"></path><path d="M705 196L692 72L597 75Z" fill="#0c2435" stroke="#0c2435"></path><path d="M597 75L618 0L525 0Z" fill="#0c2435" stroke="#0c2435"></path><path d="M775 68L692 72L705 196Z" fill="#205a7a" stroke="#205a7a"></path><path d="M724 474L798 431L674 413Z" fill="#205a7a" stroke="#205a7a"></path><path d="M803 523L798 431L724 474Z" fill="#15384f" stroke="#15384f"></path><path d="M598 600L712 600L632 462Z" fill="#0c2435" stroke="#0c2435"></path><path d="M692 72L618 0L597 75Z" fill="#205a7a" stroke="#205a7a"></path><path d="M131 497L122 600L198 600Z" fill="#297ea6" stroke="#297ea6"></path><path d="M0 600L122 600L131 497Z" fill="#081a28" stroke="#081a28"></path><path d="M900 294L828 235L780 332Z" fill="#246688" stroke="#246688"></path><path d="M780 332L828 235L705 196Z" fill="#297ea6" stroke="#297ea6"></path><path d="M334 0L184 0L319 73Z" fill="#112e42" stroke="#112e42"></path><path d="M160 75L0 84L128 136Z" fill="#112e42" stroke="#112e42"></path><path d="M712 600L803 523L724 474Z" fill="#00101c" stroke="#00101c"></path><path d="M900 407L900 294L780 332Z" fill="#277297" stroke="#277297"></path><path d="M775 68L671 0L692 72Z" fill="#297ea6" stroke="#297ea6"></path><path d="M692 72L671 0L618 0Z" fill="#112e42" stroke="#112e42"></path><path d="M0 174L0 321L95 189Z" fill="#0c2435" stroke="#0c2435"></path><path d="M95 189L0 321L128 307Z" fill="#0c2435" stroke="#0c2435"></path><path d="M98 376L0 476L131 497Z" fill="#0c2435" stroke="#0c2435"></path><path d="M0 321L0 370L98 376Z" fill="#246688" stroke="#246688"></path><path d="M828 235L775 68L705 196Z" fill="#277297" stroke="#277297"></path><path d="M0 370L0 476L98 376Z" fill="#205a7a" stroke="#205a7a"></path><path d="M184 0L122 0L160 75Z" fill="#246688" stroke="#246688"></path><path d="M0 84L95 189L128 136Z" fill="#277297" stroke="#277297"></path><path d="M712 600L812 600L803 523Z" fill="#297ea6" stroke="#297ea6"></path><path d="M900 407L780 332L798 431Z" fill="#0c2435" stroke="#0c2435"></path><path d="M900 407L798 431L900 464Z" fill="#112e42" stroke="#112e42"></path><path d="M828 235L900 200L775 68Z" fill="#246688" stroke="#246688"></path><path d="M900 464L798 431L803 523Z" fill="#277297" stroke="#277297"></path><path d="M900 600L900 464L803 523Z" fill="#297ea6" stroke="#297ea6"></path><path d="M900 294L900 200L828 235Z" fill="#00101c" stroke="#00101c"></path><path d="M122 0L0 84L160 75Z" fill="#15384f" stroke="#15384f"></path><path d="M0 476L0 600L131 497Z" fill="#00101c" stroke="#00101c"></path><path d="M900 65L822 0L775 68Z" fill="#19435d" stroke="#19435d"></path><path d="M775 68L822 0L671 0Z" fill="#15384f" stroke="#15384f"></path><path d="M812 600L900 600L803 523Z" fill="#19435d" stroke="#19435d"></path><path d="M122 0L0 0L0 84Z" fill="#1d4e6b" stroke="#1d4e6b"></path><path d="M900 200L900 65L775 68Z" fill="#246688" stroke="#246688"></path><path d="M900 65L900 0L822 0Z" fill="#112e42" stroke="#112e42"></path></g></svg>