<svg id="visual" viewBox="0 0 1500 600" width="1500" height="600" xmlns="http://www.w3.org/2000/svg" xmlns:xlink="http://www.w3.org/1999/xlink" version="1.1"><g stroke-width="2" stroke-linejoin="bevel"><path d="M846.3 293L1001 154L865.3 142Z" fill="#112e42" stroke="#FFFFFF"></path><path d="M846.3 293L1030 262L1001 154Z" fill="#15384f" stroke="#FFFFFF"></path><path d="M999 458L1144.7 270L1030 262Z" fill="#15384f" stroke="#FFFFFF"></path><path d="M1030 262L1144.7 270L1001 154Z" fill="#205a7a" stroke="#FFFFFF"></path><path d="M1190.7 135L1012 0L1001 154Z" fill="#00101c" stroke="#FFFFFF"></path><path d="M1001 154L1012 0L865.3 142Z" fill="#19435d" stroke="#FFFFFF"></path><path d="M846.3 293L999 458L1030 262Z" fill="#297ea6" stroke="#FFFFFF"></path><path d="M1012 0L801.3 0L865.3 142Z" fill="#112e42" stroke="#FFFFFF"></path><path d="M865.3 142L643.7 170L846.3 293Z" fill="#081a28" stroke="#FFFFFF"></path><path d="M636.7 413L844.3 476L846.3 293Z" fill="#0c2435" stroke="#FFFFFF"></path><path d="M846.3 293L844.3 476L999 458Z" fill="#1d4e6b" stroke="#FFFFFF"></path><path d="M1144.7 270L1190.7 135L1001 154Z" fill="#0c2435" stroke="#FFFFFF"></path><path d="M801.3 0L643.7 170L865.3 142Z" fill="#19435d" stroke="#FFFFFF"></path><path d="M643.7 170L630.7 308L846.3 293Z" fill="#297ea6" stroke="#FFFFFF"></path><path d="M801.3 0L689.7 0L643.7 170Z" fill="#19435d" stroke="#FFFFFF"></path><path d="M1190.7 135L1178.7 0L1012 0Z" fill="#277297" stroke="#FFFFFF"></path><path d="M630.7 308L636.7 413L846.3 293Z" fill="#19435d" stroke="#FFFFFF"></path><path d="M1031 600L1173.7 481L999 458Z" fill="#1d4e6b" stroke="#FFFFFF"></path><path d="M999 458L1173.7 481L1144.7 270Z" fill="#0c2435" stroke="#FFFFFF"></path><path d="M1144.7 270L1295.3 316L1190.7 135Z" fill="#112e42" stroke="#FFFFFF"></path><path d="M702.7 600L865.3 600L844.3 476Z" fill="#15384f" stroke="#FFFFFF"></path><path d="M844.3 476L865.3 600L999 458Z" fill="#205a7a" stroke="#FFFFFF"></path><path d="M1173.7 481L1295.3 316L1144.7 270Z" fill="#205a7a" stroke="#FFFFFF"></path><path d="M1190.7 135L1307.3 0L1178.7 0Z" fill="#297ea6" stroke="#FFFFFF"></path><path d="M865.3 600L1031 600L999 458Z" fill="#081a28" stroke="#FFFFFF"></path><path d="M509 0L500 164L643.7 170Z" fill="#1d4e6b" stroke="#FFFFFF"></path><path d="M643.7 170L500 164L630.7 308Z" fill="#112e42" stroke="#FFFFFF"></path><path d="M630.7 308L502 419L636.7 413Z" fill="#081a28" stroke="#FFFFFF"></path><path d="M636.7 413L702.7 600L844.3 476Z" fill="#297ea6" stroke="#FFFFFF"></path><path d="M486 600L702.7 600L636.7 413Z" fill="#297ea6" stroke="#FFFFFF"></path><path d="M1295.3 316L1354.3 120L1190.7 135Z" fill="#081a28" stroke="#FFFFFF"></path><path d="M1031 600L1164.7 600L1173.7 481Z" fill="#19435d" stroke="#FFFFFF"></path><path d="M1173.7 481L1364.3 466L1295.3 316Z" fill="#1d4e6b" stroke="#FFFFFF"></path><path d="M1354.3 120L1307.3 0L1190.7 135Z" fill="#297ea6" stroke="#FFFFFF"></path><path d="M500 164L476 327L630.7 308Z" fill="#205a7a" stroke="#FFFFFF"></path><path d="M476 327L502 419L630.7 308Z" fill="#081a28" stroke="#FFFFFF"></path><path d="M689.7 0L509 0L643.7 170Z" fill="#1d4e6b" stroke="#FFFFFF"></path><path d="M500 164L368.3 335L476 327Z" fill="#297ea6" stroke="#FFFFFF"></path><path d="M1333.3 600L1364.3 466L1173.7 481Z" fill="#19435d" stroke="#FFFFFF"></path><path d="M1295.3 316L1500 333L1354.3 120Z" fill="#205a7a" stroke="#FFFFFF"></path><path d="M1164.7 600L1333.3 600L1173.7 481Z" fill="#205a7a" stroke="#FFFFFF"></path><path d="M334.3 138L368.3 335L500 164Z" fill="#081a28" stroke="#FFFFFF"></path><path d="M476 327L364.3 421L502 419Z" fill="#297ea6" stroke="#FFFFFF"></path><path d="M502 419L486 600L636.7 413Z" fill="#277297" stroke="#FFFFFF"></path><path d="M364.3 421L486 600L502 419Z" fill="#297ea6" stroke="#FFFFFF"></path><path d="M1500 419L1500 333L1364.3 466Z" fill="#081a28" stroke="#FFFFFF"></path><path d="M1364.3 466L1500 333L1295.3 316Z" fill="#205a7a" stroke="#FFFFFF"></path><path d="M1354.3 120L1500 0L1307.3 0Z" fill="#00101c" stroke="#FFFFFF"></path><path d="M1500 333L1500 110L1354.3 120Z" fill="#205a7a" stroke="#FFFFFF"></path><path d="M368.3 335L364.3 421L476 327Z" fill="#0c2435" stroke="#FFFFFF"></path><path d="M509 0L334.3 138L500 164Z" fill="#205a7a" stroke="#FFFFFF"></path><path d="M368.3 335L167.7 334L364.3 421Z" fill="#1d4e6b" stroke="#FFFFFF"></path><path d="M1500 600L1500 419L1364.3 466Z" fill="#277297" stroke="#FFFFFF"></path><path d="M1500 110L1500 0L1354.3 120Z" fill="#112e42" stroke="#FFFFFF"></path><path d="M509 0L332.3 0L334.3 138Z" fill="#00101c" stroke="#FFFFFF"></path><path d="M196.7 600L362.3 600L364.3 421Z" fill="#112e42" stroke="#FFFFFF"></path><path d="M364.3 421L362.3 600L486 600Z" fill="#277297" stroke="#FFFFFF"></path><path d="M1333.3 600L1500 600L1364.3 466Z" fill="#1d4e6b" stroke="#FFFFFF"></path><path d="M181.7 0L203.7 166L334.3 138Z" fill="#15384f" stroke="#FFFFFF"></path><path d="M334.3 138L203.7 166L368.3 335Z" fill="#00101c" stroke="#FFFFFF"></path><path d="M203.7 166L167.7 334L368.3 335Z" fill="#246688" stroke="#FFFFFF"></path><path d="M332.3 0L181.7 0L334.3 138Z" fill="#112e42" stroke="#FFFFFF"></path><path d="M203.7 166L0 275L167.7 334Z" fill="#1d4e6b" stroke="#FFFFFF"></path><path d="M0 435L141.7 452L167.7 334Z" fill="#081a28" stroke="#FFFFFF"></path><path d="M167.7 334L141.7 452L364.3 421Z" fill="#0c2435" stroke="#FFFFFF"></path><path d="M141.7 452L196.7 600L364.3 421Z" fill="#19435d" stroke="#FFFFFF"></path><path d="M0 139L0 275L203.7 166Z" fill="#15384f" stroke="#FFFFFF"></path><path d="M141.7 452L0 600L196.7 600Z" fill="#19435d" stroke="#FFFFFF"></path><path d="M181.7 0L0 139L203.7 166Z" fill="#277297" stroke="#FFFFFF"></path><path d="M0 275L0 435L167.7 334Z" fill="#205a7a" stroke="#FFFFFF"></path><path d="M181.7 0L0 0L0 139Z" fill="#277297" stroke="#FFFFFF"></path><path d="M0 435L0 600L141.7 452Z" fill="#277297" stroke="#FFFFFF"></path></g></svg>